<?xml version="1.0" standalone="no"?>
<!DOCTYPE svg PUBLIC "-//W3C//DTD SVG 20010904//EN"
 "http://www.w3.org/TR/2001/REC-SVG-20010904/DTD/svg10.dtd">
<svg version="1.0" xmlns="http://www.w3.org/2000/svg"
 width="148.000000pt" height="148.000000pt" viewBox="0 0 148.000000 148.000000"
 preserveAspectRatio="xMidYMid meet">
<metadata>
Created by potrace 1.14, written by Peter Selinger 2001-2017
</metadata>
<g transform="translate(0.000000,148.000000) scale(0.100000,-0.100000)"
fill="#000000" stroke="none">
<path d="M1096 1465 c-21 -7 -61 -35 -88 -62 l-48 -48 197 -197 198 -198 43
43 c51 50 69 80 78 135 11 68 -11 108 -110 211 -123 126 -177 149 -270 116z"/>
<path d="M530 925 c-353 -353 -364 -365 -354 -392 7 -21 17 -29 39 -31 27 -2
63 30 394 362 l365 365 -35 30 c-19 17 -36 31 -39 31 -3 0 -169 -164 -370
-365z"/>
<path d="M657 792 c-354 -354 -367 -369 -367 -406 0 -53 43 -96 96 -96 37 0
52 13 406 367 202 202 368 373 368 379 0 12 -114 124 -127 124 -5 0 -174 -166
-376 -368z"/>
<path d="M862 607 c-298 -298 -362 -367 -362 -389 0 -27 23 -48 52 -48 15 0
738 720 738 735 0 11 -51 65 -61 65 -2 0 -167 -163 -367 -363z"/>
<path d="M61 242 c-29 -119 -56 -222 -58 -228 -3 -9 373 77 445 101 10 4 8 11
-7 31 -12 15 -21 35 -21 45 0 16 -8 19 -43 19 -85 0 -165 74 -172 160 -2 37
-7 45 -33 55 -16 7 -33 18 -36 24 -4 6 -10 11 -14 11 -4 0 -31 -98 -61 -218z"/>
</g>
</svg>
